<?xml version="1.0" standalone="no"?>
<!DOCTYPE svg PUBLIC "-//W3C//DTD SVG 20010904//EN"
 "http://www.w3.org/TR/2001/REC-SVG-20010904/DTD/svg10.dtd">
<svg version="1.0" xmlns="http://www.w3.org/2000/svg"
 width="800.000000pt" height="800.000000pt" viewBox="0 0 800.000000 800.000000"
 preserveAspectRatio="xMidYMid meet">
<metadata>
Created by potrace 1.14, written by Peter Selinger 2001-2017
</metadata>
<g transform="translate(0.000000,800.000000) scale(0.100000,-0.100000)"
fill="#000000" stroke="none">
<path d="M4500 6559 c-691 -89 -1282 -576 -1494 -1231 -80 -246 -79 -245 -86
-903 -6 -642 -5 -628 -64 -714 -15 -21 -91 -102 -170 -180 -155 -152 -185
-172 -304 -197 l-67 -14 100 4 c167 6 188 18 393 220 143 141 179 182 205 236
l32 65 1 520 c1 286 5 561 8 610 13 192 82 428 182 625 251 491 717 838 1259
936 50 9 162 20 250 24 l160 7 -170 0 c-93 0 -199 -3 -235 -8z"/>
<path d="M6450 4949 c-39 -21 -92 -24 -171 -9 -81 16 -302 13 -395 -5 -145
-28 -296 -89 -424 -174 -70 -46 -187 -157 -249 -235 -76 -96 -70 -94 41 17
147 148 297 235 496 289 63 17 108 21 247 22 94 0 211 -1 260 -4 98 -4 132 7
188 59 24 21 55 64 45 60 -2 -1 -19 -10 -38 -20z"/>
<path d="M1851 3359 c-260 -51 -464 -248 -517 -500 -19 -87 -14 -247 10 -322
79 -249 272 -416 531 -461 135 -24 148 -38 178 -204 47 -256 262 -468 522
-513 90 -15 235 -6 317 21 123 41 259 140 328 240 21 30 15 26 -39 -22 -120
-108 -250 -158 -415 -158 -169 0 -298 53 -417 170 -113 112 -161 214 -179 378
-14 131 -41 158 -172 172 -160 17 -259 63 -369 170 -123 121 -179 255 -179
430 0 173 54 304 175 426 101 102 218 158 365 173 l75 8 -85 1 c-47 0 -105 -4
-129 -9z"/>
<path d="M5040 3057 c-18 -8 -193 -13 -605 -17 -545 -5 -583 -7 -630 -25 -39
-16 -85 -54 -209 -175 -145 -141 -236 -241 -236 -258 0 -4 71 63 158 149 86
86 175 166 197 177 78 39 128 42 650 42 321 0 522 4 554 11 53 11 123 55 141
89 6 11 9 20 8 19 -2 0 -14 -6 -28 -12z"/>
</g>
</svg>
